<?xml version="1.0" encoding="UTF-8"?>
<svg width="768.8125319152348" height="613.2187978728522" viewBox="0 0 768.8125319152348 613.2187978728522" xmlns="http://www.w3.org/2000/svg"><style>
            .wall { fill: none; stroke: #333; stroke-width: 3; }
            .room-fill { fill: #f0f0f0; stroke: #333; stroke-width: 1; }
            .door { fill: none; stroke: #8B4513; stroke-width: 2; }
            .door-arc { fill: none; stroke: #8B4513; stroke-width: 2; }
            .door-opening { fill: none; stroke: #999; stroke-width: 0.5; }
            .window { fill: #87CEEB; stroke: #333; stroke-width: 1; }
            .room-label { font-family: Arial; font-size: 12px; text-anchor: middle; fill: #333; }
            .specs { font-family: Arial; font-size: 10px; fill: #666; }
            .terrain { fill: none; stroke: #000; stroke-width: 2; stroke-dasharray: 10,5; }
            .front-line { fill: none; stroke: #0066cc; stroke-width: 2; stroke-dasharray: 5,5; }
            .legend { font-family: Arial; font-size: 10px; fill: #0066cc; }
        </style><rect x="0" y="0" width="768.8125319152348" height="613.2187978728522" fill="white" /><rect x="64.06771099293624" y="51.10156648940435" width="340.6771099293623" height="511.0156648940435" class="terrain" /><rect x="64.06771099293624" y="79.03708950361205" width="192.67937836154786" height="192.67937836154786" class="room-fill" /><line x1="64.06771099293624" y1="271.7164678651599" x2="117.0545400423619" y2="271.7164678651599" class="wall" /><line x1="155.59041571467145" y1="271.7164678651599" x2="256.7470893544841" y2="271.7164678651599" class="wall" /><line x1="256.7470893544841" y1="79.03708950361205" x2="256.7470893544841" y2="107.93899625784424" class="wall" /><line x1="256.7470893544841" y1="146.47487193015382" x2="256.7470893544841" y2="271.7164678651599" class="wall" /><rect x="64.06771099293624" y="271.7164678651599" width="144.5095337711609" height="154.1435026892383" class="room-fill" /><line x1="64.06771099293624" y1="271.7164678651599" x2="117.0545400423619" y2="271.7164678651599" class="wall" /><line x1="155.59041571467145" y1="271.7164678651599" x2="208.57724476409714" y2="271.7164678651599" class="wall" /><line x1="208.57724476409714" y1="271.7164678651599" x2="208.57724476409714" y2="324.7032969145857" class="wall" /><line x1="208.57724476409714" y1="363.2391725868952" x2="208.57724476409714" y2="425.8599705543982" class="wall" /><rect x="208.57724476409714" y="271.7164678651599" width="144.5095337711609" height="144.5095337711609" class="room-fill" /><line x1="208.57724476409714" y1="271.7164678651599" x2="208.57724476409714" y2="324.7032969145857" class="wall" /><line x1="208.57724476409714" y1="363.2391725868952" x2="208.57724476409714" y2="416.2260016363208" class="wall" /><line x1="208.57724476409714" y1="416.2260016363209" x2="247.11312043640675" y2="416.2260016363209" class="wall" /><line x1="285.6489961087163" y1="416.2260016363209" x2="353.0867785352581" y2="416.2260016363209" class="wall" /><rect x="208.57724476409714" y="416.2260016363209" width="115.60762701692873" height="134.8755648530835" class="room-fill" /><line x1="208.57724476409714" y1="416.2260016363209" x2="247.11312043640675" y2="416.2260016363209" class="wall" /><line x1="285.6489961087163" y1="416.2260016363209" x2="324.1848717810259" y2="416.2260016363209" class="wall" /><line x1="324.1848717810259" y1="416.2260016363209" x2="324.1848717810259" y2="445.12790839055305" class="wall" /><line x1="324.1848717810259" y1="483.6637840628626" x2="324.1848717810259" y2="551.1015664894044" class="wall" /><rect x="256.7470893544841" y="79.03708950361205" width="115.60762701692873" height="96.33968918077393" class="room-fill" /><line x1="256.7470893544841" y1="79.03708950361205" x2="256.7470893544841" y2="107.93899625784424" class="wall" /><line x1="256.7470893544841" y1="146.47487193015382" x2="256.7470893544841" y2="175.37677868438598" class="wall" /><line x1="256.7470893544841" y1="175.37677868438595" x2="285.6489961087163" y2="175.37677868438595" class="wall" /><line x1="324.18487178102583" y1="175.37677868438595" x2="372.35471637141285" y2="175.37677868438595" class="wall" /><rect x="256.7470893544841" y="175.37677868438595" width="96.33968918077393" height="77.07175134461914" class="room-fill" /><line x1="256.7470893544841" y1="175.37677868438595" x2="285.6489961087163" y2="175.37677868438595" class="wall" /><line x1="324.18487178102583" y1="175.37677868438595" x2="353.086778535258" y2="175.37677868438595" class="wall" /><rect x="324.1848717810259" y="416.2260016363209" width="77.07175134461914" height="96.33968918077393" class="room-fill" /><line x1="324.1848717810259" y1="416.2260016363209" x2="324.1848717810259" y2="445.12790839055305" class="wall" /><line x1="324.1848717810259" y1="483.6637840628626" x2="324.1848717810259" y2="512.5656908170948" class="wall" /><path d="M 117.0545400423619 271.7164678651599 A 19.267937836154786 19.267937836154786 0 0 1 136.32247787851668 252.44853002900516" class="door-arc" /><line x1="117.0545400423619" y1="271.7164678651599" x2="136.32247787851668" y2="271.7164678651599" class="door-opening" /><line x1="136.32247787851668" y1="271.7164678651599" x2="136.32247787851668" y2="252.44853002900516" class="door-opening" /><line x1="136.32247787851668" y1="271.7164678651599" x2="155.59041571467145" y2="271.7164678651599" class="wall" /><path d="M 256.7470893544841 107.93899625784424 A 19.267937836154786 19.267937836154786 0 0 1 276.0150271906389 127.20693409399902" class="door-arc" /><line x1="256.7470893544841" y1="107.93899625784424" x2="256.7470893544841" y2="127.20693409399902" class="door-opening" /><line x1="256.7470893544841" y1="127.20693409399902" x2="276.0150271906389" y2="127.20693409399902" class="door-opening" /><line x1="256.7470893544841" y1="127.20693409399902" x2="256.7470893544841" y2="146.47487193015382" class="wall" /><path d="M 117.0545400423619 271.7164678651599 A 19.267937836154786 19.267937836154786 0 0 1 136.32247787851668 252.44853002900516" class="door-arc" /><line x1="117.0545400423619" y1="271.7164678651599" x2="136.32247787851668" y2="271.7164678651599" class="door-opening" /><line x1="136.32247787851668" y1="271.7164678651599" x2="136.32247787851668" y2="252.44853002900516" class="door-opening" /><line x1="136.32247787851668" y1="271.7164678651599" x2="155.59041571467145" y2="271.7164678651599" class="wall" /><path d="M 208.57724476409714 324.7032969145857 A 19.267937836154786 19.267937836154786 0 0 1 227.84518260025192 343.97123475074045" class="door-arc" /><line x1="208.57724476409714" y1="324.7032969145857" x2="208.57724476409714" y2="343.97123475074045" class="door-opening" /><line x1="208.57724476409714" y1="343.97123475074045" x2="227.84518260025192" y2="343.97123475074045" class="door-opening" /><line x1="208.57724476409714" y1="343.97123475074045" x2="208.57724476409714" y2="363.2391725868952" class="wall" /><path d="M 208.57724476409714 324.7032969145857 A 19.267937836154786 19.267937836154786 0 0 1 227.84518260025192 343.97123475074045" class="door-arc" /><line x1="208.57724476409714" y1="324.7032969145857" x2="208.57724476409714" y2="343.97123475074045" class="door-opening" /><line x1="208.57724476409714" y1="343.97123475074045" x2="227.84518260025192" y2="343.97123475074045" class="door-opening" /><line x1="208.57724476409714" y1="343.97123475074045" x2="208.57724476409714" y2="363.2391725868952" class="wall" /><path d="M 247.11312043640675 416.2260016363209 A 19.267937836154786 19.267937836154786 0 0 1 266.3810582725615 396.95806380016614" class="door-arc" /><line x1="247.11312043640675" y1="416.2260016363209" x2="266.3810582725615" y2="416.2260016363209" class="door-opening" /><line x1="266.3810582725615" y1="416.2260016363209" x2="266.3810582725615" y2="396.95806380016614" class="door-opening" /><line x1="266.3810582725615" y1="416.2260016363209" x2="285.6489961087163" y2="416.2260016363209" class="wall" /><path d="M 247.11312043640675 416.2260016363209 A 19.267937836154786 19.267937836154786 0 0 1 266.3810582725615 396.95806380016614" class="door-arc" /><line x1="247.11312043640675" y1="416.2260016363209" x2="266.3810582725615" y2="416.2260016363209" class="door-opening" /><line x1="266.3810582725615" y1="416.2260016363209" x2="266.3810582725615" y2="396.95806380016614" class="door-opening" /><line x1="266.3810582725615" y1="416.2260016363209" x2="285.6489961087163" y2="416.2260016363209" class="wall" /><path d="M 324.1848717810259 445.12790839055305 A 19.267937836154786 19.267937836154786 0 0 1 343.45280961718066 464.3958462267078" class="door-arc" /><line x1="324.1848717810259" y1="445.12790839055305" x2="324.1848717810259" y2="464.3958462267078" class="door-opening" /><line x1="324.1848717810259" y1="464.3958462267078" x2="343.45280961718066" y2="464.3958462267078" class="door-opening" /><line x1="324.1848717810259" y1="464.3958462267078" x2="324.1848717810259" y2="483.6637840628626" class="wall" /><path d="M 256.7470893544841 107.93899625784424 A 19.267937836154786 19.267937836154786 0 0 1 276.0150271906389 127.20693409399902" class="door-arc" /><line x1="256.7470893544841" y1="107.93899625784424" x2="256.7470893544841" y2="127.20693409399902" class="door-opening" /><line x1="256.7470893544841" y1="127.20693409399902" x2="276.0150271906389" y2="127.20693409399902" class="door-opening" /><line x1="256.7470893544841" y1="127.20693409399902" x2="256.7470893544841" y2="146.47487193015382" class="wall" /><path d="M 285.6489961087163 175.37677868438595 A 19.267937836154786 19.267937836154786 0 0 1 304.91693394487106 156.10884084823118" class="door-arc" /><line x1="285.6489961087163" y1="175.37677868438595" x2="304.91693394487106" y2="175.37677868438595" class="door-opening" /><line x1="304.91693394487106" y1="175.37677868438595" x2="304.91693394487106" y2="156.10884084823118" class="door-opening" /><line x1="304.91693394487106" y1="175.37677868438595" x2="324.18487178102583" y2="175.37677868438595" class="wall" /><path d="M 285.6489961087163 175.37677868438595 A 19.267937836154786 19.267937836154786 0 0 1 304.91693394487106 156.10884084823118" class="door-arc" /><line x1="285.6489961087163" y1="175.37677868438595" x2="304.91693394487106" y2="175.37677868438595" class="door-opening" /><line x1="304.91693394487106" y1="175.37677868438595" x2="304.91693394487106" y2="156.10884084823118" class="door-opening" /><line x1="304.91693394487106" y1="175.37677868438595" x2="324.18487178102583" y2="175.37677868438595" class="wall" /><path d="M 324.1848717810259 445.12790839055305 A 19.267937836154786 19.267937836154786 0 0 1 343.45280961718066 464.3958462267078" class="door-arc" /><line x1="324.1848717810259" y1="445.12790839055305" x2="324.1848717810259" y2="464.3958462267078" class="door-opening" /><line x1="324.1848717810259" y1="464.3958462267078" x2="343.45280961718066" y2="464.3958462267078" class="door-opening" /><line x1="324.1848717810259" y1="464.3958462267078" x2="324.1848717810259" y2="483.6637840628626" class="wall" /><line x1="64.06771099293624" y1="51.10156648940435" x2="404.7448209222986" y2="51.10156648940435" style="stroke: #0066cc; stroke-width: 4;" /><line x1="64.06771099293624" y1="79.03708950361205" x2="404.7448209222986" y2="79.03708950361205" style="stroke: #666; stroke-width: 1; stroke-dasharray: 5,5;" /><text x="69.06771099293624" y="74.03708950361205" style="font-family: Arial; font-size: 10px; fill: #666;">Recuo: 16.4'</text><text x="160.4074001737102" y="175.37677868438598" class="room-label">Sala de Estar</text><text x="160.4074001737102" y="190.37677868438598" class="specs">113' × 113'</text><text x="136.32247787851668" y="348.7882192097791" class="room-label">Quarto Principal</text><text x="136.32247787851668" y="363.7882192097791" class="specs">85' × 90'</text><text x="280.8320116496776" y="343.9712347507404" class="room-label">Cozinha</text><text x="280.8320116496776" y="358.9712347507404" class="specs">85' × 85'</text><text x="266.3810582725615" y="483.66378406286265" class="room-label">Sala de Jantar</text><text x="266.3810582725615" y="498.66378406286265" class="specs">68' × 79'</text><text x="314.5509028629485" y="127.20693409399902" class="room-label">Quarto 2</text><text x="314.5509028629485" y="142.20693409399902" class="specs">68' × 57'</text><text x="304.91693394487106" y="213.91265435669553" class="room-label">Banheiro Principal</text><text x="304.91693394487106" y="228.91265435669553" class="specs">57' × 45'</text><text x="362.72074745333543" y="464.3958462267079" class="room-label">Banheiro 2</text><text x="362.72074745333543" y="479.3958462267079" class="specs">45' × 57'</text><text x="454.7448209222986" y="51.10156648940435" style="font-family: Arial; font-size: 12px; fill: #333;">Área Construída: 42000 sq ft</text><text x="454.7448209222986" y="71.10156648940435" style="font-family: Arial; font-size: 12px; fill: #333;">Área Total: 60000 sq ft</text><text x="454.7448209222986" y="91.10156648940435" style="font-family: Arial; font-size: 12px; fill: #333;">Quartos: 2</text><text x="454.7448209222986" y="111.10156648940435" style="font-family: Arial; font-size: 12px; fill: #333;">Banheiros: 2</text><text x="454.7448209222986" y="131.10156648940435" style="font-family: Arial; font-size: 12px; fill: #333;">Estilo: Tradicional</text><text x="400" y="25" style="font-family: Arial; font-size: 16px; font-weight: bold; text-anchor: middle; fill: #333;">Planta de Casa Gerada por IA</text><line x1="454.7448209222986" y1="161.10156648940435" x2="484.7448209222986" y2="161.10156648940435" style="stroke: #0066cc; stroke-width: 4;" /><text x="489.7448209222986" y="165.10156648940435" style="font-family: Arial; font-size: 12px; fill: #333;">Frente da Casa</text></svg>